<svg class="svg-icon" style="width: 1em; height: 1em;vertical-align: middle;fill: currentColor;overflow: hidden;" viewBox="0 0 1024 1024" version="1.1" xmlns="http://www.w3.org/2000/svg"><path d="M901.851057 926.476283a48.761858 48.761858 0 0 1-48.761858 48.761859H170.423182a48.761858 48.761858 0 0 1-48.761858-48.761859V48.762834a48.761858 48.761858 0 0 1 48.761858-48.761859h418.376745a48.761858 48.761858 0 0 1 34.620919 14.140939l264.289272 263.801654a48.761858 48.761858 0 0 1 14.140939 34.620919V926.476283z" fill="#EBECF0" /><path d="M901.851057 926.476283v48.761859a48.761858 48.761858 0 0 1-48.761858 48.761858H170.423182a48.761858 48.761858 0 0 1-48.761858-48.761858v-48.761859a48.761858 48.761858 0 0 0 48.761858 48.761859h682.666017a48.761858 48.761858 0 0 0 48.761858-48.761859z" fill="#C1C7D0" /><path d="M476.647653 659.748918h71.679931V731.42885H476.647653zM511.756191 292.572125a142.872245 142.872245 0 0 0-142.872245 142.872245h71.679932a71.679932 71.679932 0 0 1 142.872244 0c0 71.679932-106.78847 62.902797-106.788469 178.95602h71.192313c0-80.457066 106.78847-89.234201 106.78847-178.95602A142.872245 142.872245 0 0 0 511.756191 292.572125z" fill="#5E6C84" /><path d="M901.851057 312.564487v6.82666h-263.801653a48.761858 48.761858 0 0 1-48.761859-48.761858V0.000975a48.761858 48.761858 0 0 1 34.62092 14.140939l264.289272 263.801654a48.761858 48.761858 0 0 1 13.65332 34.620919z" fill="#C1C7D0" /></svg>